<?xml version="1.0" encoding="iso-8859-1"?>
<!-- Generator: Adobe Illustrator 18.1.1, SVG Export Plug-In . SVG Version: 6.00 Build 0)  -->
<svg xmlns="http://www.w3.org/2000/svg" xmlns:xlink="http://www.w3.org/1999/xlink" version="1.1" id="Capa_1" x="0px" y="0px" viewBox="0 0 25.585 25.585" style="enable-background:new 0 0 25.585 25.585;" xml:space="preserve" width="512px" height="512px">
<g>
	<path d="M17.755,15.858c0,0.808-0.655,1.463-1.463,1.463s-1.463-0.655-1.463-1.463   c0-0.808,0.655-1.463,1.463-1.463S17.755,15.05,17.755,15.858z M9.292,14.396c-0.807,0-1.462,0.655-1.462,1.462   s0.655,1.462,1.462,1.462c0.807,0,1.462-0.655,1.462-1.462C10.754,15.051,10.099,14.396,9.292,14.396z M25.585,15.367   c0,1.955-2.181,4.679-5.504,5.716c-0.095,0.048-0.539,0.138-0.972,0.186c-1.674,2.753-4.956,3.958-6.317,3.958   c-1.345,0-4.567-1.18-6.258-3.866c-0.281-0.041-0.621-0.128-1.03-0.279C2.18,20.045,0,17.321,0,15.366   c0-3.398,3.953-4.567,3.953-4.567c0-4.414,2.923-8.104,6.839-9.061v-0.38c0-0.553,0.448-1,1-1h2c0.553,0,1,0.447,1,1v0.38   c3.916,0.956,6.839,4.646,6.839,9.061C21.631,10.799,25.584,12.129,25.585,15.367z M10.792,6.358c0,0.748,1.12,1.496,1.683,1.826   c0.106,0.004,0.209,0.014,0.317,0.014c0.106,0,0.208-0.008,0.312-0.012c0.563-0.328,1.688-1.078,1.688-1.828c0-1,0-2,0-2h-4   C10.792,4.358,10.792,5.358,10.792,6.358z M18.211,18.742c0.089-0.416,0.456-0.714,0.881-0.714c0.522,0,1.8-1.038,1.8-1.944   c0-0.995-0.541-1.655-0.899-1.655c-0.478,0-0.872-0.373-0.898-0.851c-0.023-0.403-0.071-0.783-0.133-1.15   c-1.593-0.776-3.767-1.257-6.168-1.257c-2.403,0-4.58,0.481-6.173,1.258c-0.062,0.365-0.107,0.747-0.13,1.149   c-0.027,0.476-0.421,0.849-0.898,0.849c-0.435,0-0.9,0.665-0.9,1.655c0,0.92,1.404,1.907,1.809,1.942   c0.395,0.034,0.79,0.325,0.872,0.713c0.693,3.278,4.352,4.688,5.419,4.688S17.518,22.017,18.211,18.742z" fill="#D80027"/>
</g>
<g>
</g>
<g>
</g>
<g>
</g>
<g>
</g>
<g>
</g>
<g>
</g>
<g>
</g>
<g>
</g>
<g>
</g>
<g>
</g>
<g>
</g>
<g>
</g>
<g>
</g>
<g>
</g>
<g>
</g>
</svg>
